<?xml version="1.0" standalone="no"?>
<!DOCTYPE svg PUBLIC "-//W3C//DTD SVG 20010904//EN"
 "http://www.w3.org/TR/2001/REC-SVG-20010904/DTD/svg10.dtd">
<svg version="1.0" xmlns="http://www.w3.org/2000/svg"
 width="512.000000pt" height="512.000000pt" viewBox="0 0 512.000000 512.000000"
 preserveAspectRatio="xMidYMid meet">
<metadata>
Created by potrace 1.11, written by Peter Selinger 2001-2013
</metadata>
<g transform="translate(0.000000,512.000000) scale(0.100000,-0.100000)"
fill="#000000" stroke="none">
<path d="M4165 5114 c-177 -38 -337 -134 -482 -287 -42 -45 -53 -63 -53 -90 0
-56 57 -99 107 -80 11 4 58 42 103 83 100 91 160 135 220 162 223 101 517 29
703 -171 126 -137 190 -302 183 -476 -6 -151 -55 -250 -201 -410 -44 -48 -84
-97 -88 -108 -19 -51 24 -107 82 -107 32 0 45 10 122 89 140 145 218 277 244
416 14 68 14 229 1 290 -55 259 -209 468 -437 593 -56 31 -175 75 -234 87 -39
7 -244 14 -270 9z"/>
<path d="M3459 4595 c-33 -18 -52 -66 -39 -100 5 -13 228 -243 496 -511 l486
-486 -1453 -1454 -1454 -1455 -115 -35 c-63 -19 -126 -39 -140 -44 -14 -5
-168 -52 -343 -106 l-318 -96 -52 52 c-64 64 -87 74 -131 56 -40 -17 -45 -24
-51 -71 -5 -33 1 -41 73 -117 42 -44 90 -86 106 -93 34 -15 19 -18 326 77 107
33 215 66 240 73 25 7 113 34 195 60 83 26 170 53 195 60 25 7 59 18 75 24 45
18 3032 3007 3046 3048 8 25 7 38 -5 60 -16 31 -1046 1063 -1061 1064 -6 0
-19 2 -30 4 -11 2 -32 -3 -46 -10z"/>
<path d="M1827 2973 c-758 -758 -1382 -1385 -1387 -1394 -8 -13 -283 -938
-295 -989 -2 -8 -35 -122 -74 -254 -79 -262 -81 -290 -31 -319 37 -22 44 -22
172 9 125 30 153 51 143 112 -8 53 -40 75 -98 69 -40 -3 -47 -2 -43 12 3 9 43
147 90 306 210 715 246 837 246 843 0 4 154 -147 343 -336 188 -188 350 -343
360 -343 9 -1 23 -2 30 -3 6 -1 24 4 39 11 28 14 49 62 40 96 -2 9 -166 179
-363 376 -198 198 -359 363 -359 368 0 4 585 593 1300 1308 l1299 1299 27 -24
c14 -14 176 -174 358 -357 183 -183 344 -337 359 -342 70 -27 139 56 99 119
-9 14 -192 202 -408 418 -379 378 -395 392 -431 392 -37 0 -72 -34 -1416
-1377z"/>
<path d="M3293 3743 c-35 -18 -2148 -2128 -2168 -2165 -23 -43 -19 -73 16
-102 66 -56 -11 -126 1181 1066 1065 1065 1088 1089 1088 1126 0 64 -62 104
-117 75z"/>
<path d="M2557 2337 c-590 -590 -1081 -1084 -1090 -1097 -25 -36 -21 -68 12
-101 21 -20 39 -29 62 -29 30 0 123 90 1115 1083 596 595 1087 1093 1092 1107
19 53 -22 110 -79 110 -38 0 -61 -22 -1112 -1073z"/>
</g>
</svg>
